<svg xmlns="http://www.w3.org/2000/svg" xmlns:xlink="http://www.w3.org/1999/xlink" width="500" zoomAndPan="magnify" viewBox="0 0 375 374.999991" height="500" preserveAspectRatio="xMidYMid meet" version="1.0"><defs><clipPath id="4baf511eb5"><path d="M 19.824219 19.824219 L 355.171875 19.824219 L 355.171875 355.171875 L 19.824219 355.171875 Z M 19.824219 19.824219 " clip-rule="nonzero"/></clipPath><clipPath id="f3ba1a80ce"><path d="M 187.5 19.824219 C 94.894531 19.824219 19.824219 94.894531 19.824219 187.5 C 19.824219 280.105469 94.894531 355.171875 187.5 355.171875 C 280.105469 355.171875 355.171875 280.105469 355.171875 187.5 C 355.171875 94.894531 280.105469 19.824219 187.5 19.824219 " clip-rule="nonzero"/></clipPath><clipPath id="e963904c15"><path d="M 158.6875 339.882812 L 216.707031 339.882812 L 216.707031 352.082031 L 158.6875 352.082031 Z M 158.6875 339.882812 " clip-rule="nonzero"/></clipPath><clipPath id="729700fc40"><path d="M 182 22.441406 L 193 22.441406 L 193 81 L 182 81 Z M 182 22.441406 " clip-rule="nonzero"/></clipPath><clipPath id="345493f216"><path d="M 291.925781 180.054688 L 350.492188 180.054688 L 350.492188 189.546875 L 291.925781 189.546875 Z M 291.925781 180.054688 " clip-rule="nonzero"/></clipPath><clipPath id="b24987e887"><path d="M 24.894531 180 L 84 180 L 84 190 L 24.894531 190 Z M 24.894531 180 " clip-rule="nonzero"/></clipPath><clipPath id="db11a26b7e"><path d="M 181.453125 209.671875 L 215.25 209.671875 L 215.25 235.140625 L 181.453125 235.140625 Z M 181.453125 209.671875 " clip-rule="nonzero"/></clipPath><clipPath id="1de23c003e"><path d="M 214.460938 226.644531 C 214.902344 225.339844 215.195312 223.855469 215.195312 222.398438 C 215.195312 220.941406 214.945312 219.539062 214.5 218.246094 C 214.488281 218.21875 214.488281 218.191406 214.472656 218.164062 C 212.695312 213.3125 208.007812 209.738281 202.472656 209.671875 L 181.453125 209.671875 L 181.453125 235.140625 L 202.457031 235.140625 C 208.035156 235.070312 212.726562 231.554688 214.460938 226.644531 " clip-rule="nonzero"/></clipPath><clipPath id="ab3aec06b6"><path d="M 181.453125 209.9375 L 214.71875 209.9375 L 214.71875 235.140625 L 181.453125 235.140625 Z M 181.453125 209.9375 " clip-rule="nonzero"/></clipPath><clipPath id="8bfe1effa2"><path d="M 213.996094 226.734375 C 214.433594 225.441406 214.71875 223.972656 214.71875 222.53125 C 214.71875 221.089844 214.472656 219.703125 214.035156 218.425781 C 214.023438 218.398438 214.023438 218.371094 214.007812 218.34375 C 212.257812 213.542969 207.632812 210.007812 202.175781 209.9375 L 181.453125 209.9375 L 181.453125 235.140625 L 202.160156 235.140625 C 207.660156 235.070312 212.285156 231.589844 213.996094 226.734375 " clip-rule="nonzero"/></clipPath></defs><g clip-path="url(#4baf511eb5)"><g clip-path="url(#f3ba1a80ce)"><path fill="#ffffff" d="M 19.824219 19.824219 L 355.171875 19.824219 L 355.171875 355.171875 L 19.824219 355.171875 Z M 19.824219 19.824219 " fill-opacity="1" fill-rule="nonzero"/></g></g><path fill="#3a8eff" d="M 187.65625 110.714844 C 170.464844 110.714844 154.277344 117.085938 141.679688 128.902344 C 128.019531 141.707031 120.5 159.054688 120.5 177.742188 C 120.5 192.902344 125.441406 207.195312 134.792969 219.074219 C 147.609375 235.355469 154.382812 254.179688 154.382812 273.519531 L 154.382812 285.308594 C 154.382812 287.289062 156 288.902344 157.988281 288.902344 L 217.507812 288.902344 C 219.304688 288.902344 220.765625 287.445312 220.765625 285.65625 L 220.765625 273.789062 C 220.765625 254.292969 227.601562 235.121094 240.011719 219.800781 C 250.523438 206.824219 255.769531 190.445312 254.785156 173.691406 C 252.828125 140.5 225.238281 112.894531 191.96875 110.847656 C 190.527344 110.757812 189.089844 110.714844 187.65625 110.714844 Z M 217.507812 298.359375 L 157.988281 298.359375 C 150.773438 298.359375 144.902344 292.503906 144.902344 285.308594 L 144.902344 273.519531 C 144.902344 256.320312 138.828125 239.511719 127.335938 224.917969 C 116.660156 211.355469 111.015625 195.042969 111.015625 177.742188 C 111.015625 156.726562 119.824219 136.410156 135.183594 122.007812 C 150.753906 107.40625 171.128906 100.09375 192.554688 101.40625 C 231.160156 103.785156 261.984375 134.621094 264.25 173.136719 C 265.375 192.246094 259.386719 210.929688 247.390625 225.742188 C 236.335938 239.386719 230.25 256.453125 230.25 273.789062 L 230.25 285.65625 C 230.25 292.660156 224.535156 298.359375 217.507812 298.359375 " fill-opacity="1" fill-rule="nonzero"/><path fill="#3a8eff" d="M 220.703125 310.847656 L 154.699219 310.847656 C 152.082031 310.847656 149.960938 308.730469 149.960938 306.117188 C 149.960938 303.507812 152.082031 301.390625 154.699219 301.390625 L 220.703125 301.390625 C 223.320312 301.390625 225.445312 303.507812 225.445312 306.117188 C 225.445312 308.730469 223.320312 310.847656 220.703125 310.847656 " fill-opacity="1" fill-rule="nonzero"/><path fill="#3a8eff" d="M 220.703125 323.457031 L 154.699219 323.457031 C 152.082031 323.457031 149.960938 321.339844 149.960938 318.730469 C 149.960938 316.117188 152.082031 314 154.699219 314 L 220.703125 314 C 223.320312 314 225.445312 316.117188 225.445312 318.730469 C 225.445312 321.339844 223.320312 323.457031 220.703125 323.457031 " fill-opacity="1" fill-rule="nonzero"/><path fill="#3a8eff" d="M 220.703125 336.070312 L 154.699219 336.070312 C 152.082031 336.070312 149.960938 333.953125 149.960938 331.339844 C 149.960938 328.730469 152.082031 326.613281 154.699219 326.613281 L 220.703125 326.613281 C 223.320312 326.613281 225.445312 328.730469 225.445312 331.339844 C 225.445312 333.953125 223.320312 336.070312 220.703125 336.070312 " fill-opacity="1" fill-rule="nonzero"/><g clip-path="url(#e963904c15)"><path fill="#3a8eff" d="M 212.445312 352.082031 L 162.957031 352.082031 L 158.746094 339.914062 L 216.65625 339.914062 L 212.445312 352.082031 " fill-opacity="1" fill-rule="nonzero"/></g><g clip-path="url(#729700fc40)"><path fill="#3a8eff" d="M 187.703125 80.828125 C 185.082031 80.828125 182.960938 78.710938 182.960938 76.101562 L 182.960938 27.167969 C 182.960938 24.558594 185.082031 22.441406 187.703125 22.441406 C 190.320312 22.441406 192.441406 24.558594 192.441406 27.167969 L 192.441406 76.101562 C 192.441406 78.710938 190.320312 80.828125 187.703125 80.828125 " fill-opacity="1" fill-rule="nonzero"/></g><path fill="#3a8eff" d="M 264.769531 112.667969 C 263.558594 112.667969 262.34375 112.207031 261.414062 111.28125 C 259.5625 109.4375 259.5625 106.441406 261.414062 104.597656 L 296.105469 69.996094 C 297.960938 68.148438 300.960938 68.148438 302.8125 69.996094 C 304.664062 71.84375 304.664062 74.839844 302.8125 76.683594 L 268.121094 111.28125 C 267.195312 112.207031 265.984375 112.667969 264.769531 112.667969 " fill-opacity="1" fill-rule="nonzero"/><g clip-path="url(#345493f216)"><path fill="#3a8eff" d="M 345.753906 189.53125 L 296.695312 189.53125 C 294.078125 189.53125 291.953125 187.414062 291.953125 184.804688 C 291.953125 182.191406 294.078125 180.074219 296.695312 180.074219 L 345.753906 180.074219 C 348.371094 180.074219 350.492188 182.191406 350.492188 184.804688 C 350.492188 187.414062 348.371094 189.53125 345.753906 189.53125 " fill-opacity="1" fill-rule="nonzero"/></g><path fill="#3a8eff" d="M 299.460938 300.996094 C 298.246094 300.996094 297.035156 300.535156 296.109375 299.609375 L 261.417969 265.011719 C 259.566406 263.164062 259.566406 260.171875 261.417969 258.324219 C 263.269531 256.476562 266.269531 256.476562 268.121094 258.324219 L 302.8125 292.921875 C 304.664062 294.769531 304.664062 297.761719 302.8125 299.609375 C 301.886719 300.535156 300.675781 300.996094 299.460938 300.996094 " fill-opacity="1" fill-rule="nonzero"/><path fill="#3a8eff" d="M 75.941406 300.996094 C 74.730469 300.996094 73.515625 300.535156 72.589844 299.609375 C 70.738281 297.761719 70.738281 294.769531 72.589844 292.921875 L 107.28125 258.324219 C 109.132812 256.476562 112.132812 256.476562 113.988281 258.324219 C 115.839844 260.171875 115.839844 263.164062 113.988281 265.011719 L 79.296875 299.609375 C 78.371094 300.535156 77.15625 300.996094 75.941406 300.996094 " fill-opacity="1" fill-rule="nonzero"/><g clip-path="url(#b24987e887)"><path fill="#3a8eff" d="M 78.710938 189.53125 L 29.652344 189.53125 C 27.03125 189.53125 24.910156 187.414062 24.910156 184.804688 C 24.910156 182.191406 27.03125 180.074219 29.652344 180.074219 L 78.710938 180.074219 C 81.328125 180.074219 83.453125 182.191406 83.453125 184.804688 C 83.453125 187.414062 81.328125 189.53125 78.710938 189.53125 " fill-opacity="1" fill-rule="nonzero"/></g><path fill="#3a8eff" d="M 110.632812 112.667969 C 109.421875 112.667969 108.207031 112.207031 107.28125 111.28125 L 72.589844 76.683594 C 70.738281 74.839844 70.738281 71.84375 72.589844 69.996094 C 74.441406 68.148438 77.441406 68.148438 79.296875 69.996094 L 113.984375 104.597656 C 115.839844 106.441406 115.839844 109.4375 113.984375 111.28125 C 113.058594 112.207031 111.847656 112.667969 110.632812 112.667969 " fill-opacity="1" fill-rule="nonzero"/><path stroke-linecap="butt" transform="matrix(0.000000000000000062, 1.014229, -1.008088, 0.000000000000000062, 189.51137, 209.676416)" fill="none" stroke-linejoin="miter" d="M -0.000625679 3.998562 L 79.524102 3.998562 " stroke="#3a8eff" stroke-width="8" stroke-opacity="1" stroke-miterlimit="4"/><path stroke-linecap="butt" transform="matrix(1.005731, 0, 0, 1.008088, 157.182417, 250.262972)" fill="none" stroke-linejoin="miter" d="M 0.00117046 4.00154 L 60.148682 4.00154 " stroke="#3a8eff" stroke-width="8" stroke-opacity="1" stroke-miterlimit="4"/><g clip-path="url(#db11a26b7e)"><g clip-path="url(#1de23c003e)"><path fill="#ffffff" d="M 181.453125 235.140625 L 181.453125 209.671875 L 215.25 209.671875 L 215.25 235.140625 Z M 181.453125 235.140625 " fill-opacity="1" fill-rule="nonzero"/></g></g><g clip-path="url(#ab3aec06b6)"><g clip-path="url(#8bfe1effa2)"><path stroke-linecap="butt" transform="matrix(0.000000000000000061, -0.997489, 0.993969, 0.000000000000000061, 181.452708, 235.139399)" fill="none" stroke-linejoin="miter" d="M 8.426179 32.740851 C 9.722402 33.181005 11.194849 33.467892 12.639883 33.467892 C 14.084917 33.467892 15.475126 33.220305 16.755685 32.78015 C 16.783097 32.76836 16.81051 32.76836 16.837922 32.75264 C 21.650787 30.992022 25.194841 26.338959 25.26533 20.848816 L 25.26533 0.000419747 L -0.00122913 0.000419747 L -0.00122913 20.833096 C 0.0692603 26.366468 3.558489 31.019532 8.426179 32.740851 " stroke="#3a8eff" stroke-width="17.855587" stroke-opacity="1" stroke-miterlimit="4"/></g></g></svg>